<svg width="74" height="59" viewBox="0 0 74 59" fill="none" xmlns="http://www.w3.org/2000/svg">
<path d="M2 57.5607V2H15.7161" stroke="#7AA2F7" stroke-width="2.2"/>
<path d="M15.7189 2H23.7814L30.5928 14.8238C26.8118 36.9378 36.1532 52.1554 41.2965 57" stroke="#7AA2F7" stroke-width="2.2"/>
<path d="M15.7189 27.4547V56.7728H2" stroke="#7AA2F7" stroke-width="2"/>
<path d="M15.7189 27.6818L2 2" stroke="#7AA2F7" stroke-width="2"/>
<path d="M24.4751 56.4364C24.1846 55.9667 23.5683 55.8215 23.0986 56.1121C22.6289 56.4027 22.4837 57.0189 22.7743 57.4886L24.4751 56.4364ZM15.7189 41.3181C14.8278 41.7719 14.8279 41.772 14.8279 41.7721C14.828 41.7722 14.8281 41.7724 14.8282 41.7727C14.8285 41.7732 14.8288 41.7739 14.8293 41.7749C14.8303 41.7768 14.8318 41.7798 14.8338 41.7837C14.8378 41.7914 14.8437 41.8031 14.8515 41.8184C14.8671 41.849 14.8902 41.8945 14.9204 41.9537C14.9808 42.0723 15.0693 42.2461 15.1817 42.4671C15.4067 42.9091 15.7278 43.5399 16.1119 44.2952C16.8803 45.8057 17.901 47.8138 18.9108 49.8042C19.9208 51.7948 20.9193 53.7667 21.6433 55.2054C22.0056 55.9253 22.298 56.5094 22.4886 56.8951C22.5848 57.0897 22.6518 57.2273 22.6886 57.3056C22.7131 57.3577 22.709 57.3514 22.6984 57.3235C22.6957 57.3166 22.6909 57.3036 22.6853 57.2867C22.681 57.2738 22.6694 57.2382 22.6589 57.1911C22.6538 57.1667 22.6438 57.105 22.6397 57.0681C22.636 57.0088 22.6443 56.8441 22.6637 56.7405C22.7305 56.5511 23.0603 56.1587 23.344 56.0202C23.6029 55.9774 23.9999 56.0458 24.1283 56.107C24.1934 56.1473 24.2907 56.2219 24.3245 56.2527C24.3458 56.2736 24.3806 56.3108 24.3942 56.3264C24.421 56.3578 24.4396 56.3838 24.447 56.3942C24.4632 56.417 24.4738 56.4342 24.4751 56.4364L22.7743 57.4886C22.7811 57.4996 22.796 57.5235 22.8156 57.5511C22.8247 57.5639 22.8447 57.5917 22.8727 57.6245C22.8733 57.6251 22.9727 57.7508 23.1413 57.8465C23.2701 57.9079 23.6674 57.9764 23.9265 57.9335C24.2103 57.795 24.5403 57.4024 24.6072 57.2126C24.6267 57.1087 24.6349 56.9436 24.6312 56.8838C24.627 56.8463 24.6169 56.784 24.6116 56.7587C24.5939 56.6789 24.5691 56.6162 24.5671 56.6109C24.5457 56.5547 24.515 56.4895 24.4982 56.4538C24.4524 56.3566 24.3779 56.2038 24.2817 56.0091C24.0876 55.6164 23.7924 55.0267 23.4298 54.3063C22.7043 52.8646 21.7045 50.8902 20.6944 48.8993C19.6842 46.9081 18.6631 44.8993 17.8946 43.3885C17.5103 42.633 17.1892 42.002 16.9641 41.5598C16.8516 41.3387 16.7631 41.1649 16.7027 41.0463C16.6725 40.987 16.6493 40.9415 16.6337 40.9108C16.6259 40.8955 16.62 40.8839 16.616 40.8761C16.614 40.8722 16.6125 40.8692 16.6115 40.8673C16.611 40.8663 16.6107 40.8655 16.6104 40.865C16.6103 40.8648 16.6102 40.8646 16.6101 40.8645C16.6101 40.8644 16.61 40.8643 15.7189 41.3181Z" fill="#7AA2F7"/>
<path d="M41.2289 58.0998C41.8364 58.1037 42.3322 57.6144 42.3362 57.0069C42.3403 56.3994 41.8512 55.9037 41.2437 55.8998L41.2289 58.0998ZM23.5804 57.9863L41.2289 58.0998L41.2437 55.8998L23.5952 55.7863L23.5804 57.9863Z" fill="#7AA2F7"/>
<path d="M15.7189 27.6818L30.6004 14.7273" stroke="#7AA2F7" stroke-width="2"/>
<path d="M72 1.43929V57H58.2839" stroke="#7AA2F7" stroke-width="2.2"/>
<path d="M58.2811 57H50.2186L43.4072 44.1762C47.1882 22.0622 37.8468 6.84458 32.7035 2.00003" stroke="#7AA2F7" stroke-width="2.2"/>
<path d="M58.2811 31.5453V2.22717H72" stroke="#7AA2F7" stroke-width="2"/>
<path d="M58.2811 31.3182L72 57" stroke="#7AA2F7" stroke-width="2"/>
<path d="M49.5249 2.56364C49.8154 3.03331 50.4317 3.17849 50.9014 2.88792C51.3711 2.59735 51.5163 1.98105 51.2257 1.51138L49.5249 2.56364ZM58.2811 17.6819C59.1722 17.2281 59.1721 17.228 59.1721 17.2279C59.172 17.2278 59.1719 17.2276 59.1718 17.2273C59.1715 17.2268 59.1712 17.2261 59.1707 17.2251C59.1697 17.2232 59.1682 17.2202 59.1662 17.2163C59.1622 17.2086 59.1563 17.1969 59.1485 17.1816C59.1329 17.151 59.1098 17.1055 59.0796 17.0463C59.0192 16.9277 58.9307 16.7539 58.8183 16.5329C58.5933 16.0909 58.2722 15.4601 57.8881 14.7048C57.1197 13.1943 56.099 11.1862 55.0892 9.19584C54.0792 7.20523 53.0807 5.23327 52.3567 3.79457C51.9944 3.07473 51.702 2.49061 51.5114 2.10488C51.4152 1.9103 51.3482 1.7727 51.3114 1.69444C51.2869 1.64233 51.291 1.64857 51.3016 1.6765C51.3043 1.68343 51.3091 1.69639 51.3147 1.71326C51.319 1.72624 51.3306 1.76178 51.3411 1.80891C51.3462 1.83333 51.3562 1.89499 51.3603 1.93194C51.364 1.99121 51.3557 2.15589 51.3363 2.2595C51.2695 2.44895 50.9397 2.84133 50.656 2.9798C50.3971 3.0226 50.0001 2.95419 49.8717 2.89299C49.8066 2.85266 49.7093 2.77808 49.6755 2.74728C49.6542 2.72636 49.6194 2.68919 49.6058 2.67356C49.579 2.64219 49.5604 2.61624 49.553 2.60583C49.5368 2.58296 49.5262 2.5658 49.5249 2.56364L51.2257 1.51138C51.2189 1.50042 51.204 1.47649 51.1844 1.44888C51.1753 1.43609 51.1553 1.40828 51.1273 1.37554C51.1267 1.37486 51.0273 1.24918 50.8587 1.1535C50.7299 1.09212 50.3326 1.02364 50.0735 1.0665C49.7897 1.20504 49.4597 1.5976 49.3928 1.78735C49.3733 1.89128 49.3651 2.05639 49.3688 2.11621C49.373 2.15371 49.3831 2.21604 49.3884 2.24127C49.4061 2.32113 49.4309 2.38385 49.4329 2.38908C49.4543 2.44528 49.485 2.51053 49.5018 2.54616C49.5476 2.64339 49.6221 2.7962 49.7183 2.99086C49.9124 3.3836 50.2076 3.97326 50.5702 4.69365C51.2957 6.13542 52.2955 8.10979 53.3056 10.1007C54.3158 12.0919 55.3369 14.1007 56.1054 15.6115C56.4897 16.367 56.8108 16.998 57.0359 17.4402C57.1484 17.6613 57.2369 17.8351 57.2973 17.9537C57.3275 18.013 57.3507 18.0585 57.3663 18.0892C57.3741 18.1045 57.38 18.1161 57.384 18.1239C57.386 18.1278 57.3875 18.1308 57.3885 18.1327C57.389 18.1337 57.3893 18.1345 57.3896 18.135C57.3897 18.1352 57.3898 18.1354 57.3899 18.1355C57.3899 18.1356 57.39 18.1357 58.2811 17.6819Z" fill="#7AA2F7"/>
<path d="M32.7711 0.900246C32.1636 0.89634 31.6678 1.38565 31.6638 1.99315C31.6597 2.60065 32.1488 3.09629 32.7563 3.1002L32.7711 0.900246ZM50.4196 1.01373L32.7711 0.900246L32.7563 3.1002L50.4048 3.21368L50.4196 1.01373Z" fill="#7AA2F7"/>
<path d="M58.2811 31.3182L43.3996 44.2727" stroke="#7AA2F7" stroke-width="2"/>
</svg>
