<svg width="65" height="65" viewBox="0 0 58 49" fill="none" xmlns="http://www.w3.org/2000/svg">
<path d="M1.25 47.4588V2H12.0269" stroke="#B4F9F8" stroke-width="2.2"/>
<path d="M12.0292 2H18.364L23.7158 12.4922C20.745 30.5855 28.0846 43.0362 32.1258 47" stroke="#B4F9F8" stroke-width="2.2"/>
<path d="M12.0291 22.8267V46.8143H1.25" stroke="#B4F9F8" stroke-width="2"/>
<path d="M12.0291 23.0124L1.25 2" stroke="#B4F9F8" stroke-width="2"/>
<path d="M19.1006 46.4586C18.8185 45.9838 18.2049 45.8276 17.7301 46.1097C17.2553 46.3918 17.0991 47.0053 17.3811 47.4802L19.1006 46.4586ZM12.0292 34.1694C11.1309 34.6088 11.1309 34.6088 11.1309 34.6089C11.131 34.609 11.1311 34.6092 11.1312 34.6094C11.1313 34.6098 11.1316 34.6104 11.132 34.6112C11.1328 34.6128 11.134 34.6152 11.1355 34.6184C11.1387 34.6247 11.1433 34.6342 11.1494 34.6468C11.1617 34.6718 11.1799 34.709 11.2036 34.7575C11.251 34.8545 11.3205 34.9967 11.4089 35.1775C11.5857 35.5391 11.8379 36.0553 12.1398 36.6732C12.7434 37.9091 13.5454 39.552 14.3388 41.1804C15.1323 42.809 15.9168 44.4222 16.4855 45.5991C16.7702 46.188 16.9997 46.6655 17.1492 46.9805C17.2247 47.1397 17.2768 47.251 17.305 47.3135C17.3249 47.3574 17.3189 47.3466 17.3081 47.3171C17.3056 47.3101 17.3009 47.2972 17.2957 47.2806C17.2916 47.2678 17.2807 47.2332 17.271 47.1875C17.2663 47.1639 17.257 47.1045 17.2532 47.0689C17.2498 47.0119 17.2574 46.8535 17.2754 46.7537C17.3384 46.5682 17.6617 46.1719 17.9469 46.0279C18.2156 45.9817 18.6263 46.0551 18.7575 46.1201C18.8228 46.1622 18.9197 46.2395 18.9531 46.2712C18.974 46.2926 19.008 46.3304 19.0213 46.3462C19.0473 46.378 19.0654 46.4042 19.0726 46.4148C19.0884 46.438 19.0989 46.4557 19.1006 46.4586L17.3811 47.4802C17.3871 47.4902 17.4011 47.5135 17.4195 47.5406C17.428 47.5531 17.4472 47.5808 17.4742 47.6137C17.4879 47.6301 17.5224 47.6684 17.5436 47.6901C17.5774 47.7222 17.6745 47.7997 17.7401 47.842C17.8716 47.9072 18.2824 47.9806 18.5513 47.9344C18.8367 47.7903 19.1601 47.3938 19.2231 47.2081C19.2412 47.108 19.2488 46.9493 19.2454 46.8919C19.2415 46.8558 19.2322 46.7958 19.2273 46.7716C19.2109 46.6945 19.1879 46.6341 19.1862 46.6294C19.1669 46.5768 19.1401 46.5176 19.1275 46.4898C19.0908 46.4087 19.0317 46.2824 18.9561 46.1231C18.8033 45.8012 18.5711 45.3183 18.2863 44.7288C17.716 43.549 16.9304 41.9334 16.1368 40.3044C15.343 38.6751 14.5407 37.0316 13.9368 35.7954C13.6349 35.1773 13.3826 34.661 13.2057 34.2992C13.1173 34.1183 13.0478 33.976 13.0003 33.879C12.9766 33.8305 12.9584 33.7933 12.9461 33.7682C12.94 33.7556 12.9353 33.7461 12.9322 33.7397C12.9306 33.7365 12.9295 33.7341 12.9287 33.7325C12.9283 33.7317 12.928 33.7311 12.9278 33.7307C12.9277 33.7305 12.9276 33.7303 12.9276 33.7302C12.9275 33.7301 12.9275 33.7301 12.0292 34.1694Z" fill="#B4F9F8"/>
<path d="M32.0714 48.0998C32.6789 48.1039 33.1745 47.6147 33.1784 47.0072C33.1824 46.3997 32.6931 45.9039 32.0856 45.8999L32.0714 48.0998ZM18.2048 48.007L32.0714 48.0998L32.0856 45.8999L18.219 45.807L18.2048 48.007Z" fill="#B4F9F8"/>
<path d="M12.0292 23.0125L23.7218 12.4133" stroke="#B4F9F8" stroke-width="2"/>
<path d="M56.25 1.54124L56.25 47H45.4731" stroke="#B4F9F8" stroke-width="2.2"/>
<path d="M45.4708 47H39.136L33.7842 36.5078C36.755 18.4145 29.4154 5.96376 25.3742 2.00003" stroke="#B4F9F8" stroke-width="2.2"/>
<path d="M45.4709 26.1733V2.18575H56.25" stroke="#B4F9F8" stroke-width="2"/>
<path d="M45.4709 25.9876L56.25 47" stroke="#B4F9F8" stroke-width="2"/>
<path d="M38.3994 2.54141C38.6815 3.01621 39.2951 3.17243 39.7699 2.89034C40.2447 2.60824 40.4009 1.99465 40.1189 1.51985L38.3994 2.54141ZM45.4708 14.8306C46.3691 14.3912 46.3691 14.3912 46.3691 14.3911C46.369 14.391 46.3689 14.3908 46.3688 14.3906C46.3687 14.3902 46.3684 14.3896 46.368 14.3888C46.3672 14.3872 46.366 14.3848 46.3645 14.3816C46.3613 14.3753 46.3567 14.3658 46.3506 14.3532C46.3383 14.3282 46.3201 14.291 46.2964 14.2425C46.249 14.1455 46.1795 14.0033 46.0911 13.8225C45.9143 13.4609 45.6621 12.9447 45.3602 12.3268C44.7566 11.0909 43.9546 9.44804 43.1612 7.81963C42.3677 6.19098 41.5832 4.57776 41.0145 3.40089C40.7298 2.81197 40.5003 2.33452 40.3508 2.01949C40.2753 1.86031 40.2232 1.74897 40.195 1.68648C40.1751 1.64258 40.1811 1.65341 40.1919 1.68291C40.1944 1.68995 40.1991 1.7028 40.2043 1.71939C40.2084 1.73224 40.2193 1.76681 40.229 1.81248C40.2337 1.8361 40.243 1.89554 40.2468 1.93113C40.2502 1.9881 40.2426 2.14648 40.2246 2.2463C40.1616 2.43175 39.8383 2.82811 39.5531 2.97212C39.2844 3.01829 38.8737 2.94495 38.7425 2.8799C38.6772 2.83778 38.5803 2.76046 38.5469 2.72878C38.526 2.70743 38.492 2.66963 38.4787 2.65375C38.4527 2.622 38.4346 2.59577 38.4274 2.58521C38.4116 2.56197 38.4011 2.54428 38.3994 2.54141L40.1189 1.51985C40.1129 1.50976 40.0989 1.48655 40.0805 1.45942C40.072 1.44692 40.0528 1.41916 40.0258 1.38629C40.0121 1.36985 39.9776 1.3316 39.9564 1.30989C39.9226 1.27785 39.8255 1.20028 39.7599 1.15801C39.6284 1.09281 39.2176 1.01941 38.9487 1.06563C38.6633 1.2097 38.3399 1.6062 38.2769 1.79191C38.2588 1.89198 38.2512 2.05071 38.2546 2.10814C38.2585 2.14418 38.2678 2.20417 38.2727 2.22844C38.2891 2.30546 38.3121 2.3659 38.3138 2.37062C38.3331 2.42325 38.3599 2.48236 38.3725 2.51024C38.4092 2.59134 38.4683 2.71761 38.5439 2.87689C38.6967 3.1988 38.9289 3.6817 39.2137 4.27116C39.784 5.45104 40.5696 7.06663 41.3632 8.69562C42.157 10.3249 42.9593 11.9684 43.5632 13.2046C43.8651 13.8227 44.1174 14.339 44.2943 14.7008C44.3827 14.8817 44.4522 15.024 44.4997 15.121C44.5234 15.1695 44.5416 15.2067 44.5539 15.2318C44.56 15.2444 44.5647 15.2539 44.5678 15.2603C44.5694 15.2635 44.5705 15.2659 44.5713 15.2675C44.5717 15.2683 44.572 15.2689 44.5722 15.2693C44.5723 15.2695 44.5724 15.2697 44.5724 15.2698C44.5725 15.2699 44.5725 15.2699 45.4708 14.8306Z" fill="#B4F9F8"/>
<path d="M25.4286 0.900188C24.8211 0.896121 24.3255 1.3853 24.3216 1.9928C24.3176 2.6003 24.8069 3.09607 25.4144 3.10014L25.4286 0.900188ZM39.2952 0.993041L25.4286 0.900188L25.4144 3.10014L39.281 3.19299L39.2952 0.993041Z" fill="#B4F9F8"/>
<path d="M45.4708 25.9875L33.7782 36.5867" stroke="#B4F9F8" stroke-width="2"/>
</svg>
